<svg width="98" height="96" viewBox="0 0 98 96" fill="none" xmlns="http://www.w3.org/2000/svg">
<path d="M85.782 78.7815C71.0768 96.0463 45.5824 100.882 25.2033 89.1567C4.82005 77.4292 -3.72483 53.0013 3.93461 31.6748C1.84024 38.3989 16.921 53.3519 38.6906 65.8771C60.4456 78.3938 80.9678 83.9333 85.782 78.7815Z" fill="#1D254F"/>
<path d="M4.27337 30.9004C0.631725 37.186 16.0408 52.8456 38.6905 65.8771C61.3401 78.9085 82.6534 84.3771 86.2951 78.0915C89.9367 71.8058 74.5277 56.1462 51.878 43.1148C29.2283 30.0833 7.91501 24.6148 4.27337 30.9004Z" fill="#2F4682"/>
<path d="M11.4666 18.4841C8.65259 23.3412 24.7326 37.8427 47.3823 50.8742C70.0319 63.9056 90.6743 70.5322 93.4883 65.6752C96.3023 60.8181 80.2223 46.3166 57.5726 33.2851C34.923 20.2537 14.2806 13.627 11.4666 18.4841Z" fill="#4B6DAF"/>
<path d="M21.9941 8.67687C20.0078 12.1054 35.1318 24.5128 55.7745 36.3896C76.4172 48.2663 94.7617 55.115 96.7481 51.6864C98.7344 48.2579 83.6105 35.8505 62.9677 23.9738C42.325 12.097 23.9805 5.24834 21.9941 8.67687Z" fill="#7F9FDC"/>
<path d="M37.7128 1.85599C36.5541 3.85597 48.3979 12.832 64.1666 21.9045C79.9354 30.9771 93.6578 36.7105 94.8165 34.7105C95.9752 32.7106 84.1314 23.7345 68.3627 14.662C52.5939 5.58946 38.8715 -0.143984 37.7128 1.85599Z" fill="#CAD8F3"/>
<path d="M61.8764 1.96253C61.3798 2.81967 65.5095 6.1221 71.1002 9.33872C76.6909 12.5553 81.6257 14.4681 82.1223 13.611C82.6189 12.7538 78.4892 9.4514 72.8985 6.23477C67.3078 3.01815 62.373 1.1054 61.8764 1.96253Z" fill="#BFE916"/>
</svg>
